# xmcd
# Track frame offsets:
# 150
# 17645
# 39481
# 55690
# 71355
# 101531
# 113965
# 136115
# 152465
# 169088
# 186206
#
# Disc length: 2848 seconds
# Revision: 0
# Processed by: cddbd v1.4PL0 Copyright (c) Steve Scherf et al.
# Submitted via: VisiTrax 2.9.5.181 - For more info visit www.synapsa.com
#
DISCID=830b1e0b
DTITLE=Rodney Crowell - The Houston Kid
DYEAR=1900
DGENRE=
TTITLE0=Telephone Road
TTITLE1=The Rock Of Soul
TTITLE2=Why Don't We Talk About It
TTITLE3=I Wish It Would Rain
TTITLE4=Wandering Boy
TTITLE5=I Walk The Line (revisited) - (with Johnny Cash)
TTITLE6=Highway
TTITLE7=You Don't Know How Much I Hate You
TTITLE8=Banks Of Old Bandera
TTITLE9=Topsy Turvy
TTITLE10=I Know Love Is All You Need
EXTD=
EXTT0=
EXTT1=
EXTT2=
EXTT3=
EXTT4=
EXTT5=
EXTT6=
EXTT7=
EXTT8=
EXTT9=
EXTT10=
PLAYORDER=
